<svg xmlns="http://www.w3.org/2000/svg" version="1.1" xmlns:xlink="http://www.w3.org/1999/xlink" xmlns:svgjs="http://svgjs.dev/svgjs" width="100%" height="100%" viewBox="0 0 1000 600"><rect width="1000" height="600" x="0" y="0" fill="33B2C9"/><g><circle r="166.66666666666666" cx="512.0152994791666" cy="534.2375237777035" fill="#b88746" transform="matrix(0.36195307617698375,0,0,0.3619530761769838,0,106.63108643503394)"/><path d="M499.5276457713172 543.8217258931036L499.5276457713172 609.2374859193415L458.16876850835155 609.2374859193415L458.16876850835155 459.23748908381475L565.8618335877786 459.23748908381475L565.8618335877786 478.40596586686553L499.5276457713172 478.40596586686553L499.5276457713172 524.7717559216944L550.7522151034574 524.7717559216944L550.7522151034574 543.8217258931036L499.5276457713172 543.8217258931036Z " fill="white" transform="matrix(0.36195307617698375,0,0,0.3619530761769838,0,106.63108643503394)"/><path d="M825.490045010661 488.3539241271824L825.490045010661 589.4373992285546L793.5581048461651 589.4373992285546L793.5581048461651 488.3539241271824L762.0152994363618 488.3539241271824L762.0152994363618 473.54391316916883L857.055740700152 473.54391316916883L857.055740700152 488.3539241271824L825.490045010661 488.3539241271824ZM960.2909020921783 542.7641189451085L960.2909020921783 542.7641189451085Q960.2909020921783 549.9974473264566 958.3681185984021 556.360945079668Q956.4224448249382 562.7244428328794 953.0117931514544 568.1036585595148Q949.6011414779707 573.5057645658383 944.7712924638427 577.8091371471467Q939.9414434497146 582.112509728455 934.1730929683863 585.0882460878704Q928.4276327667458 588.0639824472858 921.8581224963441 589.6891923051203Q915.3115025056302 591.291511883267 908.3986380399114 591.291511883267L908.3986380399114 591.291511883267Q901.4628832945048 591.291511883267 894.9391535834786 589.6891923051203Q888.4383141521405 588.0639824472858 882.6699636708122 585.0882460878704Q876.9245034691717 582.112509728455 872.0946544550436 577.8091371471467Q867.2648054409156 573.5057645658383 863.8541537674317 568.1036585595148Q860.4206118142602 562.7244428328794 858.497828320484 556.3151645202925Q856.5521545470201 549.9287764873932 856.5521545470201 542.7641189451085L856.5521545470201 542.7641189451085Q856.5521545470201 535.5994614028236 858.497828320484 529.2130733699246Q860.4206118142602 522.8037950573375 863.8541537674317 517.424579330702Q867.2648054409156 512.0224733243787 872.0946544550436 507.7191007430702Q876.9245034691717 503.4157281617618 882.6699636708122 500.4399918023464Q888.4383141521405 497.46425544293106 894.9391535834786 495.83904558509647Q901.4628832945048 494.2367260069497 908.3986380399114 494.2367260069497L908.3986380399114 494.2367260069497Q915.3115025056302 494.2367260069497 921.8581224963441 495.83904558509647Q928.4276327667458 497.46425544293106 934.1730929683863 500.4399918023464Q939.9414434497146 503.4157281617618 944.7712924638427 507.7191007430702Q949.6011414779707 512.0224733243787 953.0117931514544 517.424579330702Q956.4224448249382 522.8037950573375 958.3681185984021 529.2130733699246Q960.2909020921783 535.5994614028236 960.2909020921783 542.7641189451085ZM932.6165539496151 542.7641189451085L932.6165539496151 542.7641189451085Q932.6165539496151 538.8956616778685 932.158748355859 534.5922890965601Q931.7238330417905 530.2889165152517 930.6708801761513 526.1457758917579Q929.6408175901997 522.0026352682642 927.8324854948627 518.1799585603997Q926.0012631198379 514.3572818525354 923.3459906760518 511.495996891559Q920.6907182322657 508.6347119305827 917.0053832025283 506.9179409539969Q913.2971578931028 505.17827969772327 908.3986380399114 505.17827969772327L908.3986380399114 505.17827969772327Q903.729020983598 505.17827969772327 900.0894665132361 506.94083123368466Q896.472802322562 508.72627304933394 893.7717493194003 511.6562288493737Q891.0935865959265 514.5861846494134 889.2852545005894 518.4546419166534Q887.4540321255646 522.3230991838934 886.3324084208618 526.4662398073872Q885.2107847161592 530.609380430881 884.7300888427151 534.844082173126Q884.2493929692711 539.0558936356831 884.2493929692711 542.7641189451085L884.2493929692711 542.7641189451085Q884.2493929692711 546.4723442545337 884.7300888427151 550.684155717091Q885.2107847161592 554.9188574593359 886.3324084208618 559.1077786422053Q887.4540321255646 563.2738095453868 889.2852545005894 567.0964862532512Q891.0935865959265 570.9191629611155 893.7717493194003 573.8720090408431Q896.472802322562 576.8019648408829 900.0894665132361 578.5645163768443Q903.729020983598 580.3499581924937 908.3986380399114 580.3499581924937L908.3986380399114 580.3499581924937Q913.2055967743516 580.3499581924937 916.913822083777 578.61029693622Q920.6220473932024 576.8935259596342 923.323100396364 573.9864604392822Q926.0012631198379 571.0793949189303 927.786704935487 567.3024987704416Q929.5492564714484 563.5256026219528 930.6479898964634 559.3366814390833Q931.7238330417905 555.147760256214 932.158748355859 550.8901682342812Q932.6165539496151 546.6325762123485 932.6165539496151 542.7641189451085ZM1138.217046105531 531.3418693808909L1138.217046105531 531.3418693808909Q1138.217046105531 539.7883825856931 1135.9737986961254 547.3879554420462Q1133.7076610070321 554.9875282983994 1129.6560815022897 561.442587170362Q1125.5816117178595 567.8747557626368 1119.950602914658 573.0708492517699Q1114.3195941114566 578.244052461215 1107.5211810441767 581.8836069315769Q1100.722767976897 585.500271122251 1092.9629631627292 587.4688351754028Q1085.1802680688734 589.4373992285546 1076.9855479406374 589.4373992285546L1076.9855479406374 589.4373992285546L1025.871553397756 589.4373992285546L1025.871553397756 473.54391316916883L1076.9855479406374 473.54391316916883Q1085.1802680688734 473.54391316916883 1092.9171826033535 475.48958694263274Q1100.6312068581458 477.4123704364089 1107.4296199254254 481.00614434739515Q1114.250923272393 484.5770279786936 1119.9048223552822 489.727340908451Q1125.5816117178595 494.8776538382084 1129.6560815022897 501.28693215079545Q1133.7076610070321 507.6733201836946 1135.9737986961254 515.2728930400478Q1138.217046105531 522.8953561760887 1138.217046105531 531.3418693808909ZM1105.781519787903 531.3418693808909L1105.781519787903 531.3418693808909Q1105.781519787903 521.9110741495128 1103.492491819122 513.4187803853351Q1101.203463850341 504.94937690084515 1096.373614836213 498.49431802888256Q1091.5437658220849 492.06214943660774 1084.1044249235465 488.28525328811895Q1076.665084025008 484.50835713963016 1066.272897046742 484.50835713963016L1066.272897046742 484.50835713963016L1057.8263838419398 484.50835713963016L1057.8263838419398 578.1753816221517L1066.272897046742 578.1753816221517Q1076.5048520671933 578.1753816221517 1083.9441929657319 574.3527049142872Q1091.3835338642702 570.5300282064229 1096.2591634377739 564.0520790547723Q1101.11190273159 557.574129903122 1103.4467112597465 549.1276166983198Q1105.781519787903 540.6811034935176 1105.781519787903 531.3418693808909ZM1253.4696043336578 542.7641189451085L1253.4696043336578 542.7641189451085Q1253.4696043336578 549.9974473264566 1251.523930560194 556.360945079668Q1249.6011470664178 562.7244428328794 1246.1676051132463 568.1036585595148Q1242.7569534397626 573.5057645658383 1237.9271044256343 577.8091371471467Q1233.0972554115065 582.112509728455 1227.3517952098657 585.0882460878704Q1221.5834447285374 588.0639824472858 1215.0368247378237 589.6891923051203Q1208.467314467422 591.291511883267 1201.5544500017031 591.291511883267L1201.5544500017031 591.291511883267Q1194.6415855359842 591.291511883267 1188.1178558249583 589.6891923051203Q1181.5941261139321 588.0639824472858 1175.8486659122916 585.0882460878704Q1170.0803154309635 582.112509728455 1165.2504664168355 577.8091371471467Q1160.4206174027072 573.5057645658383 1157.0099657292235 568.1036585595148Q1153.5993140557398 562.7244428328794 1151.6536402822758 556.3151645202925Q1149.7308567884998 549.9287764873932 1149.7308567884998 542.7641189451085L1149.7308567884998 542.7641189451085Q1149.7308567884998 535.5994614028236 1151.6536402822758 529.2130733699246Q1153.5993140557398 522.8037950573375 1157.0099657292235 517.424579330702Q1160.4206174027072 512.0224733243787 1165.2504664168355 507.7191007430702Q1170.0803154309635 503.4157281617618 1175.8486659122916 500.4399918023464Q1181.5941261139321 497.46425544293106 1188.1178558249583 495.83904558509647Q1194.6415855359842 494.2367260069497 1201.5544500017031 494.2367260069497L1201.5544500017031 494.2367260069497Q1208.467314467422 494.2367260069497 1215.0368247378237 495.83904558509647Q1221.5834447285374 497.46425544293106 1227.3517952098657 500.4399918023464Q1233.0972554115065 503.4157281617618 1237.9271044256343 507.7191007430702Q1242.7569534397626 512.0224733243787 1246.1676051132463 517.424579330702Q1249.6011470664178 522.8037950573375 1251.523930560194 529.2130733699246Q1253.4696043336578 535.5994614028236 1253.4696043336578 542.7641189451085ZM1225.7723659114067 542.7641189451085L1225.7723659114067 542.7641189451085Q1225.7723659114067 538.8956616778685 1225.3374505973384 534.5922890965601Q1224.90253528327 530.2889165152517 1223.8495824176307 526.1457758917579Q1222.7966295519914 522.0026352682642 1220.9882974566544 518.1799585603997Q1219.1799653613175 514.3572818525354 1216.5246929175314 511.495996891559Q1213.8694204737453 508.6347119305827 1210.16119516432 506.9179409539969Q1206.4529698548947 505.17827969772327 1201.5544500017031 505.17827969772327L1201.5544500017031 505.17827969772327Q1196.8848329453897 505.17827969772327 1193.2681687547156 506.94083123368466Q1189.6515045640417 508.72627304933394 1186.95045156088 511.6562288493737Q1184.2493985577182 514.5861846494134 1182.4410664623813 518.4546419166534Q1180.6327343670441 522.3230991838934 1179.5111106623415 526.4662398073872Q1178.3665966779508 530.609380430881 1177.885900804507 534.844082173126Q1177.4052049310628 539.0558936356831 1177.4052049310628 542.7641189451085L1177.4052049310628 542.7641189451085Q1177.4052049310628 546.4723442545337 1177.885900804507 550.684155717091Q1178.3665966779508 554.9188574593359 1179.5111106623415 559.1077786422053Q1180.6327343670441 563.2738095453868 1182.4410664623813 567.0964862532512Q1184.2493985577182 570.9191629611155 1186.95045156088 573.8720090408431Q1189.6515045640417 576.8019648408829 1193.2681687547156 578.5645163768443Q1196.8848329453897 580.3499581924937 1201.5544500017031 580.3499581924937L1201.5544500017031 580.3499581924937Q1206.3842990158312 580.3499581924937 1210.0925243252566 578.61029693622Q1213.777859354994 576.8935259596342 1216.4789123581556 573.9864604392822Q1219.1799653613175 571.0793949189303 1220.942516897279 567.3024987704416Q1222.727958712928 563.5256026219528 1223.8038018582552 559.3366814390833Q1224.90253528327 555.147760256214 1225.3374505973384 550.8901682342812Q1225.7723659114067 546.6325762123485 1225.7723659114067 542.7641189451085ZM1402.2564223044274 574.7189493892922L1402.2564223044274 589.4373992285546L1319.0502556392355 589.4373992285546L1319.0502556392355 473.54391316916883L1350.9821958037314 473.54391316916883L1350.9821958037314 574.7189493892922L1402.2564223044274 574.7189493892922ZM1444.0998535737453 474.04749932230067L1444.0998535737453 474.04749932230067Q1444.0998535737453 477.0919065207795 1442.9324493096672 479.8387400833168Q1441.7650450455887 482.56268336616625 1439.7507004330614 484.5770279786936Q1437.736355820534 486.59137259122093 1435.0124125376847 487.7587768552993Q1432.2655789751475 488.92618111937765 1429.2211717766686 488.92618111937765L1429.2211717766686 488.92618111937765Q1426.1538742985017 488.92618111937765 1423.45282129534 487.7587768552993Q1420.7746585718664 486.59137259122093 1418.7603139593389 484.5770279786936Q1416.7459693468118 482.56268336616625 1415.5785650827333 479.8387400833168Q1414.411160818655 477.0919065207795 1414.411160818655 474.04749932230067L1414.411160818655 474.04749932230067Q1414.411160818655 470.98020184413406 1415.5785650827333 468.27914884097237Q1416.7459693468118 465.57809583781074 1418.7603139593389 463.58664150497117Q1420.7746585718664 461.57229689244383 1423.45282129534 460.40489262836553Q1426.1538742985017 459.2374883642871 1429.2211717766686 459.2374883642871L1429.2211717766686 459.2374883642871Q1432.2655789751475 459.2374883642871 1435.0124125376847 460.40489262836553Q1437.736355820534 461.57229689244383 1439.7507004330614 463.58664150497117Q1441.7650450455887 465.57809583781074 1442.9324493096672 468.27914884097237Q1444.0998535737453 470.98020184413406 1444.0998535737453 474.04749932230067ZM1442.8866687502914 496.5715345351064L1442.8866687502914 589.4373992285546L1415.624345642109 589.4373992285546L1415.624345642109 496.5715345351064L1442.8866687502914 496.5715345351064ZM1545.6640245485614 559.7487064734639L1545.6640245485614 559.7487064734639Q1545.6640245485614 565.8604111501095 1543.8785827329125 570.5986990454862Q1542.1160311969509 575.359877220551 1539.071623998472 578.862090012786Q1536.0043265203053 582.364302805021 1531.815405337436 584.7220016128654Q1527.6264841545667 587.1025907003977 1522.8424156998144 588.5446783207299Q1518.0583472450617 590.0096562207498 1512.816473196553 590.6505840520085Q1507.5974894277324 591.291511883267 1502.4471764979749 591.291511883267L1502.4471764979749 591.291511883267Q1495.5343120322561 591.291511883267 1490.2237671446842 590.3987909754426Q1484.890331977424 589.5289603473057 1480.083373242984 587.5375060144661Q1475.253524228856 585.5689419613145 1470.4465654944156 582.4329736440843Q1465.662497039663 579.2970053268543 1459.8025854395837 574.7876202283555L1459.8025854395837 574.7876202283555L1475.6426589835487 561.8317219250548Q1477.8172355538904 565.9290819891729 1481.4110094648768 569.2710628235932Q1484.9818930961753 572.6130436580136 1488.8503503634154 575.0394133049215Q1492.7188076306554 577.4428926721416 1496.3354718213295 578.7247483346591Q1499.9521360120036 580.0294942768642 1502.195383421409 580.0294942768642L1502.195383421409 580.0294942768642Q1504.0494960761216 580.0294942768642 1506.3843046042784 579.8921525987373Q1508.719113132435 579.7777012002985 1511.1454827793432 579.4114567252934Q1513.548962146563 579.0452122502884 1515.8837706747197 578.3356135799663Q1518.2185792028763 577.6031246299563 1520.0269112982137 576.3670495268145Q1521.8352433935506 575.108084143985 1522.9339768185655 573.2310812095845Q1524.0098199638928 571.3311879954963 1524.0098199638928 568.6759155517102L1524.0098199638928 568.6759155517102Q1524.0098199638928 565.9290819891729 1522.6135129029362 563.8918470969577Q1521.194315562292 561.8317219250548 1518.9510681528864 560.2980731859714Q1516.6849304637933 558.7873147265759 1513.800755223129 557.7343618609366Q1510.893689702777 556.6814089952974 1507.9637339027372 555.880249206224Q1505.0108878230099 555.0790894171506 1502.2869445401602 554.4610518655797Q1499.540110977623 553.8659045936967 1497.5257663650957 553.2936476015013L1497.5257663650957 553.2936476015013Q1493.840431335358 552.2635850155499 1489.7201809915523 551.1648515905349Q1485.622820927434 550.0890084452078 1481.5941317023794 548.6698111045637Q1477.5883327570125 547.2735040436071 1473.9258880069629 545.3278302701433Q1470.263443256913 543.4050467763672 1467.4708291350003 540.7039937732054Q1464.701105292775 538.0258310497316 1463.0530051552528 534.3633862996819Q1461.4049050177305 530.7009415496323 1461.4049050177305 525.7795314167529L1461.4049050177305 525.7795314167529Q1461.4049050177305 516.7607612197555 1464.9757886490288 510.6948371024856Q1468.5695625600151 504.6289129852158 1474.4294741600947 500.9664682351661Q1480.312276039862 497.3040234851164 1487.797397497776 495.77037474603304Q1495.2825189556902 494.2367260069497 1503.0194334901703 494.2367260069497L1503.0194334901703 494.2367260069497Q1508.3299783777422 494.2367260069497 1514.1898899778218 495.31256915227686Q1520.0726918575892 496.41130257729174 1525.6121395420394 498.54009858825816Q1531.1744775061775 500.66889459922453 1536.0043265203053 503.7361920773912Q1540.8341755344336 506.78059927587 1544.0388146907271 510.7406176618612L1544.0388146907271 510.7406176618612L1528.198741146762 523.7651868042256Q1526.4361896108007 518.9353377900975 1523.5749046498242 515.478905557238Q1520.713619688848 512.0224733243787 1517.3716388544274 509.80211619466104Q1514.0296580200072 507.6046493446312 1510.5274452277722 506.5516964789919Q1507.025232435537 505.4987436133526 1504.0494960761216 505.4987436133526L1504.0494960761216 505.4987436133526Q1501.1653208354574 505.4987436133526 1497.5257663650957 505.75053668991853Q1493.9091021744216 505.97943948679665 1490.7273532978159 507.1239534711872Q1487.568494700898 508.2455771758899 1485.3481375711804 510.53460514467093Q1483.1277804414626 512.823633113452 1483.1277804414626 516.8523223385067L1483.1277804414626 516.8523223385067Q1483.1277804414626 519.7364975791709 1484.4554166633557 521.7966227510738Q1485.7830528852487 523.8567479229769 1487.957629455591 525.3446161026845Q1490.1322060259326 526.8324842823922 1492.9019298681578 527.8396565886558Q1495.6945439900708 528.8468288949196 1498.5787192307348 529.6022081246173Q1501.4857847510868 530.3804776340028 1504.2097280339362 530.9298443465103Q1506.9565615964739 531.5021013387056 1509.1311381668156 532.1430291699643L1509.1311381668156 532.1430291699643Q1512.816473196553 533.1959820356035 1516.959613820047 534.2718251809306Q1521.1256447232286 535.3476683262578 1525.1314436685952 536.766865666902Q1529.1601328936501 538.1860630075463 1532.9141387624509 540.0630659419468Q1536.645254351564 541.9629591560351 1539.4607587531648 544.6869024388845Q1542.2762631547655 547.4337360014218 1543.9701438516636 551.0961807514716Q1545.6640245485614 554.7586255015212 1545.6640245485614 559.7487064734639ZM1597.8080816773945 507.28418542900187L1597.8080816773945 589.4373992285546L1570.522868289524 589.4373992285546L1570.522868289524 507.28418542900187L1553.6298418799197 507.28418542900187L1553.6298418799197 496.47997341635516L1570.522868289524 496.47997341635516L1570.522868289524 462.281895562766L1597.8080816773945 462.281895562766L1597.8080816773945 496.47997341635516L1625.9631256934017 496.47997341635516L1625.9631256934017 507.28418542900187L1597.8080816773945 507.28418542900187ZM1792.3067881847219 502.2941044570591L1792.3067881847219 502.2941044570591L1778.5497300923475 508.0853452180752Q1776.947410514201 502.84347116956656 1774.2463575110392 498.49431802888256Q1771.5453045078775 494.1451648881985 1767.8141889187646 491.05497713034407Q1764.0601830499636 487.96478937248963 1759.3218951545869 486.225128116216Q1754.560716979522 484.50835713963016 1748.9297081763207 484.50835713963016L1748.9297081763207 484.50835713963016Q1742.9095646184264 484.50835713963016 1737.8737030871082 486.4769211927819Q1732.8378415557895 488.44548524593364 1728.8549328901108 491.90191747879305Q1724.8720242244317 495.35834971165247 1721.8962878650163 499.9592959289024Q1718.9205515056008 504.5373518664646 1716.9062068930734 509.73344535559755Q1714.8918622805463 514.9295388447306 1713.930470533658 520.4689865291808Q1712.96907878677 526.0313244933188 1712.96907878677 531.3418693808909L1712.96907878677 531.3418693808909Q1712.96907878677 539.7883825856931 1714.9376428399219 548.143334671744Q1716.9062068930734 556.5211770374826 1721.2095794743818 563.2051387063234Q1725.5129520556902 569.8891003751642 1732.3571456823456 574.0322409986579Q1739.201339309001 578.1753816221517 1748.9297081763207 578.1753816221517L1748.9297081763207 578.1753816221517Q1754.0800211060782 578.1753816221517 1758.6809673233279 576.4357203658781Q1763.2590232608902 574.7189493892922 1767.0130291296912 571.6974324705011Q1770.7441447188041 568.6759155517102 1773.559649120405 564.578555487592Q1776.3751535220058 560.4583051437862 1778.0690342189037 555.7200172484092L1778.0690342189037 555.7200172484092L1791.9863242690926 561.2823552125474Q1788.9419170706137 568.9277086282762 1783.608481903354 574.6731688299164Q1778.2979370157818 580.418629031557 1771.4995239485022 584.1955251800457Q1764.7011108812221 587.9953116082224 1756.9413060670545 589.8723145426229Q1749.1815012528866 591.7722077567112 1741.2843547605921 591.7722077567112L1741.2843547605921 591.7722077567112Q1732.7691707167264 591.7722077567112 1724.9178047838072 589.6891923051203Q1717.066438850888 587.5832865738419 1710.313806342984 583.7148293066018Q1703.5382835553921 579.8692623190495 1698.0446164303175 574.3984854736627Q1692.5280590255552 568.9277086282762 1688.6138211989394 562.2437469594354Q1684.7224736520116 555.5597852905946 1682.5936776410451 547.7084193576756Q1680.4419913503912 539.8570534247565 1680.4419913503912 531.3418693808909L1680.4419913503912 531.3418693808909Q1680.4419913503912 522.8037950573375 1682.5936776410451 514.9524291244184Q1684.7224736520116 507.1239534711872 1688.6138211989394 500.3942112429708Q1692.5280590255552 493.66446901475445 1698.0446164303175 488.1936921693677Q1703.5382835553921 482.72291532398094 1710.313806342984 478.8773483364287Q1717.066438850888 475.00889106918873 1724.9178047838072 472.90298533791014Q1732.7691707167264 470.81996988631937 1741.2843547605921 470.81996988631937L1741.2843547605921 470.81996988631937Q1749.501965168516 470.81996988631937 1757.353331101435 472.7427533800955Q1765.1818067546662 474.6884271535594 1771.9573295422583 478.57977470048723Q1778.7099620501622 482.4940125271028 1783.9747263783588 488.399704686558Q1789.262380986243 494.32828712570097 1792.3067881847219 502.2941044570591ZM1904.2402558581166 536.171718395019L1904.2402558581166 536.171718395019Q1904.2402558581166 545.5796233467092 1901.9512278893353 555.7886880874728Q1899.662199920554 566.0206431079241 1895.5648398564358 575.8405730939949Q1891.44458951263 585.6605030800656 1885.744909870365 594.3130288020582Q1880.0223399484125 602.9655545240505 1873.1781463217571 609.2374911585107L1873.1781463217571 609.2374911585107L1862.9690815809936 603.6751531943728Q1865.1436581513358 599.6464639693181 1867.0664416451118 594.6792732770632Q1869.0121154185758 589.6891923051203 1870.5686544373466 584.0810737816068Q1872.1480837358058 578.495845537781 1873.3841588389478 572.5443728189503Q1874.6431242217773 566.5929001001193 1875.490064570226 560.7558787797277Q1876.3141146389871 554.9188574593359 1876.7719202327435 549.4023000545735Q1877.2068355468118 543.8857426498112 1877.2068355468118 539.1474547544344L1877.2068355468118 539.1474547544344Q1877.2068355468118 536.0114864372042 1876.9779327499336 532.417712526218Q1876.726139673368 528.8468288949196 1875.9707604436703 525.2530549839332Q1875.1924909342847 521.6821713526348 1873.9106352717672 518.38597107759Q1872.6287796092497 515.0897708025452 1870.4999835982835 512.594730316574Q1868.3482973076293 510.0996898306026 1865.349670668526 508.56604109151925Q1862.328153749735 507.0323923524359 1858.2079034059293 507.0323923524359L1858.2079034059293 507.0323923524359Q1854.2021044605622 507.0323923524359 1851.0661361433322 508.84072444777297Q1847.9072775464142 510.64905654311 1845.5037981791943 513.6019026228375Q1843.100318811974 516.5318584228773 1841.3606575557005 520.3087545713661Q1839.6209962994267 524.0856507198548 1838.5451531540998 528.068559385534Q1837.446419729085 532.0514680512131 1836.9657238556406 535.9199253184531Q1836.4850279821967 539.7883825856931 1836.4850279821967 542.8327897841718L1836.4850279821967 542.8327897841718L1836.4850279821967 589.4373992285546L1809.1998145943262 589.4373992285546L1809.1998145943262 462.281895562766L1836.4163571431332 462.281895562766L1836.4163571431332 510.16836066966596Q1841.6353409119538 502.52300725393724 1849.2349137683073 498.3798666304435Q1856.8573769043483 494.2367260069497 1866.1050498982236 494.2367260069497L1866.1050498982236 494.2367260069497Q1875.7647479264797 494.2367260069497 1882.9294054687648 497.3726943241798Q1890.0940630110495 500.5086626414099 1894.8323509064262 506.1167811649235Q1899.593529081491 511.7020094087493 1901.9054473299598 519.3931433838537Q1904.2402558581166 527.0613870792703 1904.2402558581166 536.171718395019ZM1944.572928668039 545.3278302701433L1944.572928668039 545.3278302701433Q1949.5630096399818 546.4723442545337 1954.5530906119243 547.1132720857925Q1959.5431715838672 547.7541999170512 1964.6019233948732 547.7541999170512L1964.6019233948732 547.7541999170512Q1969.9124682824454 547.7541999170512 1974.4676339403195 546.7470276107874Q1978.999909318506 545.7398553045239 1982.3418901529262 543.3592662169915Q1985.6838709873468 541.001567409147 1987.6295447608109 537.0415490231558Q1989.5523282545869 533.1044209168524 1989.5523282545869 527.221619037085L1989.5523282545869 527.221619037085Q1989.5523282545869 522.4833311417082 1988.2704725920694 518.5462030354047Q1986.9657266498643 514.5861846494134 1984.4477958842053 511.7706802478127Q1981.9069748388583 508.95517584621206 1978.198749529433 507.3986368274409Q1974.513414499695 505.81920752898196 1969.5920043668161 505.81920752898196L1969.5920043668161 505.81920752898196Q1965.0139484292536 505.81920752898196 1961.3515036792041 507.5130882258799Q1957.6890589291543 509.20696892277795 1954.8964448072416 512.0682538837543Q1952.1267209650164 514.9295388447306 1950.1581569118648 518.7064349932193Q1948.1895928587128 522.4833311417082 1946.9077371961953 526.5806912058263Q1945.6029912539902 530.7009415496323 1945.0536245414828 534.8669724528138Q1944.4813675492878 539.0558936356831 1944.4813675492878 542.7641189451085L1944.4813675492878 542.7641189451085Q1944.4813675492878 543.4050467763672 1944.4813675492878 544.0459746076258Q1944.4813675492878 544.6869024388845 1944.572928668039 545.3278302701433ZM2011.5956675939487 526.9927162402068L2011.5956675939487 526.9927162402068Q2011.5956675939487 532.6923958824717 2009.7415549392358 537.1788907012826Q2007.9103325642113 541.6424952404057 2004.7285836876054 545.0073663545139Q2001.5468348109998 548.39512774831 1997.3579136281305 550.7299362764666Q1993.1689924452608 553.0647448046233 1988.430704549884 554.552612984331Q1983.6695263748197 556.0404811640386 1978.6565551231888 556.6814089952974Q1973.6206935918708 557.322336826556 1968.859515416806 557.322336826556L1968.859515416806 557.322336826556Q1962.8393718589118 557.322336826556 1956.9565699791447 556.4753964781071Q1951.096658379065 555.6284561296582 1945.374088457112 553.7972337546332L1945.374088457112 553.7972337546332Q1946.2668093649368 559.1077786422053 1948.1895928587128 563.8918470969577Q1950.1123763524893 568.6759155517102 1953.3399057884703 572.2467991830085Q1956.5674352244514 575.8405730939949 1961.259942560453 577.9235885455857Q1965.9753401761418 580.0294942768642 1972.4075087684168 580.0294942768642L1972.4075087684168 580.0294942768642Q1976.6651007903492 580.0294942768642 1980.5335580575893 578.7247483346591Q1984.4020153248293 577.4428926721416 1987.6295447608109 575.108084143985Q1990.8341839171044 572.7732756158282 1993.2834438436998 569.5686364595347Q1995.7555940499838 566.3411070235534 1997.266352509379 562.40397891725L1997.266352509379 562.40397891725L2009.0319562689137 566.7531320579341Q2006.3766838251277 573.0937395314577 2001.75284732819 577.7175760283953Q1997.1061205515643 582.364302805021 1991.2919895108607 585.3629294441241Q1985.4549681904687 588.3844463629152 1978.885457920067 589.8494242629351Q1972.3388379293533 591.291511883267 1965.8837790573907 591.291511883267L1965.8837790573907 591.291511883267Q1955.2626892822464 591.291511883267 1946.2668093649368 587.697737972281Q1937.2480391679396 584.1268543409824 1930.7243094569135 577.6946857487076Q1924.2005797458874 571.239626876745 1920.51524471615 562.3124177984987Q1916.8070194067245 553.3852087202526 1916.8070194067245 542.7641189451085L1916.8070194067245 542.7641189451085Q1916.8070194067245 532.1430291699643 1920.51524471615 523.2158200917181Q1924.2005797458874 514.2657207337841 1930.7243094569135 507.8335521415093Q1937.2480391679396 501.4013835492345 1946.2668093649368 497.8076096382482Q1955.2626892822464 494.2367260069497 1965.8837790573907 494.2367260069497L1965.8837790573907 494.2367260069497Q1971.0340919871483 494.2367260069497 1976.4361979934715 494.96921495695966Q1981.8154137201068 495.6788136272818 1986.8970558108008 497.2582429257407Q1991.9558076218068 498.8147819445119 1996.4651927203058 501.3098224304832Q2000.9745778188044 503.8048629164546 2004.316558653225 507.4673076665043Q2007.6585394876452 511.129752416554 2009.6271035407972 515.9596014306821Q2011.5956675939487 520.7894504448102 2011.5956675939487 526.9927162402068ZM2114.373023392219 519.5075947822927L2114.373023392219 519.5075947822927L2102.607419632684 524.1772118386061Q2099.7919152310833 515.3186735994234 2093.1995146809936 510.5803857040466Q2086.6071141309044 505.81920752898196 2077.3594411370286 505.81920752898196L2077.3594411370286 505.81920752898196Q2072.369360165086 505.81920752898196 2068.45512233847 507.3986368274409Q2064.5637747915425 508.95517584621206 2061.610928711815 511.7020094087493Q2058.6809729117754 514.4259526915987 2056.6208477398723 518.0655071619607Q2054.583612847657 521.6821713526348 2053.2788669054517 525.7795314167529Q2051.9970112429346 529.876891480871 2051.424754250739 534.2718251809306Q2050.8753875382317 538.6667588809903 2050.8753875382317 542.7641189451085L2050.8753875382317 542.7641189451085Q2050.8753875382317 547.1819429248559 2051.3560834116756 551.6913280233546Q2051.83677928512 556.2007131218534 2053.004183549198 560.3438537453471Q2054.1715878132763 564.4869943688409 2056.0943713070524 568.080768279827Q2058.0400450805164 571.6516519111256 2060.970000880556 574.3069243549116Q2063.899956680596 576.9621967986977 2067.9744264650267 578.495845537781Q2072.026005969769 580.0294942768642 2077.3594411370286 580.0294942768642L2077.3594411370286 580.0294942768642Q2081.6170331589615 580.0294942768642 2085.4854904262015 578.7247483346591Q2089.3310574137536 577.4428926721416 2092.558586849735 575.108084143985Q2095.7861162857166 572.7732756158282 2098.2811567716876 569.5686364595347Q2100.776197257659 566.3411070235534 2102.218284877991 562.40397891725L2102.218284877991 562.40397891725L2114.0525594765895 566.7531320579341Q2111.3972870328034 573.0937395314577 2107.0023533327435 577.7175760283953Q2102.607419632684 582.364302805021 2097.0679719482337 585.3629294441241Q2091.5056339840958 588.3844463629152 2085.1650265105723 589.8494242629351Q2078.8015287573608 591.291511883267 2072.277799046335 591.291511883267L2072.277799046335 591.291511883267Q2061.7253801102543 591.291511883267 2052.729500192944 587.697737972281Q2043.710729995947 584.1268543409824 2037.1412197255454 577.648905189332Q2030.5945997348317 571.1709560376814 2026.8863744254063 562.2666372391232Q2023.2010393956684 553.3852087202526 2023.2010393956684 542.7641189451085L2023.2010393956684 542.7641189451085Q2023.2010393956684 532.0514680512131 2026.8405938660308 523.1242589729668Q2030.5030386160802 514.1970498947207 2037.0267683271063 507.7648813024459Q2043.5504980381324 501.3098224304832 2052.5692682351296 497.7847193585604Q2061.565148152439 494.2367260069497 2072.277799046335 494.2367260069497L2072.277799046335 494.2367260069497Q2079.030431554239 494.2367260069497 2085.4854904262015 495.72459418665744Q2091.9176590184766 497.2124623663651 2097.4342164232385 500.30265012421955Q2102.9278835483133 503.4157281617618 2107.3228172483728 508.1540160571387Q2111.7177509484327 512.9151942322032 2114.373023392219 519.5075947822927ZM2157.658542281869 558.2150577343807L2157.658542281869 589.4373992285546L2130.4648900127495 589.4373992285546L2130.4648900127495 462.281895562766L2157.658542281869 462.281895562766L2157.658542281869 545.7398553045239Q2164.342503950709 540.9100062903958 2170.82045310236 535.1187655293796Q2177.2984022540104 529.3275247683636 2183.1812041337776 522.9182464557766Q2189.041115733857 516.5318584228773 2194.0769772651756 509.84789675403664Q2199.112838796494 503.16393508519593 2202.8897349449826 496.47997341635516L2202.8897349449826 496.47997341635516L2221.3850809327337 496.47997341635516Q2215.7540721295322 505.97943948679665 2208.04004787474 515.4331249978625Q2200.30313334026 524.8868105089282 2191.215692304199 533.516445951233L2191.215692304199 533.516445951233L2221.728435128051 589.4373992285546L2191.6963881776433 589.4373992285546L2170.0650738726617 550.6383751577152Q2164.02204003508 554.7586255015212 2157.658542281869 558.2150577343807L2157.658542281869 558.2150577343807ZM2254.3928642425567 545.3278302701433L2254.3928642425567 545.3278302701433Q2259.3829452144996 546.4723442545337 2264.3730261864425 547.1132720857925Q2269.363107158385 547.7541999170512 2274.4218589693915 547.7541999170512L2274.4218589693915 547.7541999170512Q2279.7324038569636 547.7541999170512 2284.2875695148377 546.7470276107874Q2288.842735172712 545.7398553045239 2292.1618257274445 543.3592662169915Q2295.503806561865 541.001567409147 2297.4494803353286 537.0415490231558Q2299.3722638291047 533.1044209168524 2299.3722638291047 527.221619037085L2299.3722638291047 527.221619037085Q2299.3722638291047 522.4833311417082 2298.0904081665876 518.5462030354047Q2296.80855250407 514.5861846494134 2294.267731458723 511.7706802478127Q2291.726910413376 508.95517584621206 2288.0186851039507 507.3986368274409Q2284.3333500742133 505.81920752898196 2279.411939941334 505.81920752898196L2279.411939941334 505.81920752898196Q2274.833884003772 505.81920752898196 2271.1714392537224 507.5130882258799Q2267.508994503672 509.20696892277795 2264.7392706614473 512.0682538837543Q2261.946656539534 514.9295388447306 2259.9780924863826 518.7064349932193Q2258.009528433231 522.4833311417082 2256.7276727707135 526.5806912058263Q2255.445817108196 530.7009415496323 2254.8735601160006 534.8669724528138Q2254.3013031238056 539.0558936356831 2254.3013031238056 542.7641189451085L2254.3013031238056 542.7641189451085Q2254.3013031238056 543.4050467763672 2254.3013031238056 544.0459746076258Q2254.3013031238056 544.6869024388845 2254.3928642425567 545.3278302701433ZM2321.4156031684665 526.9927162402068L2321.4156031684665 526.9927162402068Q2321.4156031684665 532.6923958824717 2319.5843807934416 537.1788907012826Q2317.7302681387287 541.6424952404057 2314.548519262123 545.0073663545139Q2311.3667703855176 548.39512774831 2307.1778492026483 550.7299362764666Q2302.988928019779 553.0647448046233 2298.250640124402 554.552612984331Q2293.4894619493375 556.0404811640386 2288.4764906977066 556.6814089952974Q2283.440629166389 557.322336826556 2278.702341271012 557.322336826556L2278.702341271012 557.322336826556Q2272.6593074334296 557.322336826556 2266.776505553662 556.4753964781071Q2260.916593953583 555.6284561296582 2255.1940240316303 553.7972337546332L2255.1940240316303 553.7972337546332Q2256.086744939455 559.1077786422053 2258.009528433231 563.8918470969577Q2259.932311927007 568.6759155517102 2263.1598413629886 572.2467991830085Q2266.3873707989696 575.8405730939949 2271.079878134971 577.9235885455857Q2275.7952757506596 580.0294942768642 2282.2274443429346 580.0294942768642L2282.2274443429346 580.0294942768642Q2286.507926644555 580.0294942768642 2290.3534936321075 578.7247483346591Q2294.2219508993476 577.4428926721416 2297.4494803353286 575.108084143985Q2300.6541194916226 572.7732756158282 2303.1262696979056 569.5686364595347Q2305.5755296245015 566.3411070235534 2307.1091783635848 562.40397891725L2307.1091783635848 562.40397891725L2318.8518918434315 566.7531320579341Q2316.1966193996454 573.0937395314577 2311.5727829027082 577.7175760283953Q2306.94894640577 582.364302805021 2301.1119250853785 585.3629294441241Q2295.2749037649864 588.3844463629152 2288.705393494585 589.8494242629351Q2282.158773503871 591.291511883267 2275.7266049115965 591.291511883267L2275.7266049115965 591.291511883267Q2265.0826248567646 591.291511883267 2256.086744939455 587.697737972281Q2247.0679747424574 584.1268543409824 2240.5442450314313 577.6946857487076Q2234.0205153204056 571.239626876745 2230.3351802906677 562.3124177984987Q2226.6269549812423 553.3852087202526 2226.6269549812423 542.7641189451085L2226.6269549812423 542.7641189451085Q2226.6269549812423 532.1430291699643 2230.3351802906677 523.2158200917181Q2234.0205153204056 514.2657207337841 2240.5442450314313 507.8335521415093Q2247.0679747424574 501.4013835492345 2256.086744939455 497.8076096382482Q2265.0826248567646 494.2367260069497 2275.7266049115965 494.2367260069497L2275.7266049115965 494.2367260069497Q2280.876917841354 494.2367260069497 2286.256133567989 494.96921495695966Q2291.6582395743126 495.6788136272818 2296.7169913853186 497.2582429257407Q2301.798633476013 498.8147819445119 2306.2851282948236 501.3098224304832Q2310.794513393322 503.8048629164546 2314.136494227743 507.4673076665043Q2317.4784750621634 511.129752416554 2319.4470391153145 515.9596014306821Q2321.4156031684665 520.7894504448102 2321.4156031684665 526.9927162402068ZM2417.4403264588327 504.6975838242792L2417.4403264588327 504.6975838242792L2402.1496196273747 530.0371234386857Q2401.165337600799 526.8324842823922 2399.6545791414037 522.8037950573375Q2398.12093040232 518.7751058322829 2395.8547927132267 515.2728930400478Q2393.6115453038215 511.7706802478127 2390.475576986592 509.41298143996823Q2387.3396086693615 507.0323923524359 2383.2193583255553 507.0323923524359L2383.2193583255553 507.0323923524359Q2379.442462177067 507.0323923524359 2376.6727383348416 508.95517584621206Q2373.9030144926164 510.9008496196759 2371.9573407191524 513.9910373775303Q2370.0345572253764 517.0812251353848 2368.775591842547 520.9954629620004Q2367.539516739405 524.8868105089282 2366.852808348771 528.8697191746073Q2366.166099958137 532.8755181199742 2365.937197161258 536.5150725903361Q2365.6854040846924 540.1775173403859 2365.6854040846924 542.8327897841718L2365.6854040846924 542.8327897841718L2365.6854040846924 589.4373992285546L2338.4001906968224 589.4373992285546L2338.4001906968224 496.47997341635516L2348.8610485141517 496.47997341635516L2359.8941633236764 518.1341780010241Q2362.137410733082 512.9151942322032 2365.044476253434 508.5202605321436Q2367.9286514940977 504.12532683208394 2371.7284379222747 500.9664682351661Q2375.505334070763 497.7847193585604 2380.289402525516 495.99927754291116Q2385.073470980268 494.2367260069497 2391.11650481785 494.2367260069497L2391.11650481785 494.2367260069497Q2394.2524731350804 494.2367260069497 2398.12093040232 494.7632024397694Q2401.98938766956 495.28967887258904 2405.6747226992975 496.52575397573077Q2409.382948008723 497.7847193585604 2412.5189163259533 499.7990639710877Q2415.6548846431833 501.7905183039273 2417.4403264588327 504.6975838242792Z " fill="#b88746" transform="matrix(0.36195307617698375,0,0,0.3619530761769838,0,106.63108643503394)"/></g></svg>